# xmcd CD database file
#
# Track frame offsets:
#	150
#	30252
#	63405
#	82625
#	128812
#	158000
#	187137
#	212445
#	240095
#	278035
#	305365
#
# Disc length: 4311 seconds
#
# Revision: 8
# Processed by: cddbd v1.5.2PL0 Copyright (c) Steve Scherf et al.
# Submitted via: CDex 1.70beta2
#
DISCID=7c10d50b
DTITLE=Spyro Gyra - Road Scholars
DYEAR=1998
DGENRE=Jazz
TTITLE0=Heart Of The Night
TTITLE1=Breakfast At Igor's
TTITLE2=Morning Dance
TTITLE3=Shaker Song
TTITLE4=Shanghai Gumbo
TTITLE5=Innocent Soul
TTITLE6=South American Sojourn
TTITLE7=Ariana
TTITLE8=De la Luz
TTITLE9=Daddy's Got a New Girl Now
TTITLE10=Best Friends
EXTD=Recorded on location across the USA\nMarch to Oct 1997\nVerve YEAR: 1998
EXTT0=
EXTT1=
EXTT2=
EXTT3=
EXTT4=
EXTT5=
EXTT6=
EXTT7=
EXTT8=
EXTT9=
EXTT10=
PLAYORDER=
